<svg aria-hidden="true" xmlns="http://www.w3.org/2000/svg" viewBox="11 11 18 18" fill="none"><path d="M12.5 25.2695C12.358 25.2695 12.2393 25.2212 12.144 25.1245C12.0487 25.0278 12.0007 24.9088 12 24.7675C11.9993 24.6262 12.0473 24.5075 12.144 24.4115C12.2407 24.3155 12.3593 24.2678 12.5 24.2685H27.5C27.642 24.2685 27.7607 24.3165 27.856 24.4125C27.952 24.5085 28 24.6275 28 24.7695C28 24.9115 27.952 25.0302 27.856 25.1255C27.76 25.2208 27.6413 25.2685 27.5 25.2685L12.5 25.2695ZM12.5 20.4995C12.358 20.4995 12.2393 20.4515 12.144 20.3555C12.0487 20.2595 12.0007 20.1405 12 19.9985C11.9993 19.8565 12.0473 19.7378 12.144 19.6425C12.2407 19.5472 12.3593 19.4995 12.5 19.4995H27.5C27.642 19.4995 27.7607 19.5475 27.856 19.6435C27.9513 19.7395 27.9993 19.8585 28 20.0005C28.0007 20.1425 27.9527 20.2612 27.856 20.3565C27.7593 20.4518 27.6407 20.4995 27.5 20.4995H12.5ZM12.5 15.7295C12.358 15.7295 12.2393 15.6818 12.144 15.5865C12.048 15.4905 12 15.3715 12 15.2295C12 15.0875 12.048 14.9688 12.144 14.8735C12.24 14.7782 12.3587 14.7305 12.5 14.7305H27.5C27.642 14.7305 27.7607 14.7785 27.856 14.8745C27.9513 14.9705 27.9993 15.0888 28 15.2295C28.0007 15.3702 27.9527 15.4888 27.856 15.5855C27.7593 15.6822 27.6407 15.7302 27.5 15.7295H12.5Z" fill="currentColor"/></svg>
