<svg aria-hidden="true" xmlns="http://www.w3.org/2000/svg" viewBox="11 11 18 18" fill="none"><path fill-rule="evenodd" clip-rule="evenodd" d="M15.2503 11.53H12.0903L11.3203 23.13C11.2737 23.8138 11.3682 24.4999 11.5979 25.1456C11.8276 25.7914 12.1876 26.383 12.6555 26.8838C13.1235 27.3846 13.6894 27.7838 14.3181 28.0566C14.9468 28.3295 15.625 28.4702 16.3103 28.47H23.6903C24.3748 28.4701 25.052 28.3297 25.68 28.0574C26.3081 27.7852 26.8735 27.3869 27.3413 26.8872C27.8091 26.3875 28.1693 25.7971 28.3996 25.1525C28.63 24.508 28.7255 23.823 28.6803 23.14L27.9003 11.53H21.5753H15.2503ZM13.0303 12.53H15.2503V13.16C15.2503 13.7838 15.3732 14.4014 15.6119 14.9777C15.8506 15.554 16.2005 16.0777 16.6416 16.5188C17.0827 16.9598 17.6063 17.3097 18.1826 17.5484C18.7589 17.7871 19.3766 17.91 20.0003 17.91C20.6241 17.91 21.2418 17.7871 21.8181 17.5484C22.3944 17.3097 22.918 16.9598 23.3591 16.5188C23.8002 16.0777 24.1501 15.554 24.3888 14.9777C24.6275 14.4014 24.7503 13.7838 24.7503 13.16V12.53H26.9703L27.6903 23.2C27.7274 23.7475 27.6514 24.2969 27.467 24.8138C27.2826 25.3307 26.9939 25.8041 26.6187 26.2046C26.2435 26.6052 25.7899 26.9242 25.2861 27.1419C24.7823 27.3596 24.2391 27.4713 23.6903 27.47H16.3103C15.7624 27.4699 15.2203 27.3572 14.7177 27.1389C14.2151 26.9206 13.7627 26.6013 13.3886 26.201C13.0145 25.8006 12.7266 25.3276 12.5428 24.8114C12.3591 24.2952 12.2833 23.7467 12.3203 23.2L13.0303 12.53ZM16.2503 12.53H23.7503V13.16C23.7503 14.1546 23.3552 15.1084 22.652 15.8116C21.9487 16.5149 20.9949 16.91 20.0003 16.91C19.0058 16.91 18.0519 16.5149 17.3487 15.8116C16.6454 15.1084 16.2503 14.1546 16.2503 13.16V12.53Z" fill="currentColor"/></svg>
